<mxfile host="65bd71144e">
    <diagram id="_f1Pdu3kWcDJurf9TUPZ" name="Page-1">
        <mxGraphModel dx="960" dy="470" grid="1" gridSize="10" guides="1" tooltips="1" connect="1" arrows="1" fold="1" page="1" pageScale="1" pageWidth="850" pageHeight="1100" math="0" shadow="0">
            <root>
                <mxCell id="0"/>
                <mxCell id="1" parent="0"/>
                <mxCell id="16" style="edgeStyle=none;html=1;exitX=1;exitY=0.5;exitDx=0;exitDy=0;entryX=0;entryY=0.5;entryDx=0;entryDy=0;" parent="1" source="2" target="4" edge="1">
                    <mxGeometry relative="1" as="geometry"/>
                </mxCell>
                <mxCell id="22" style="edgeStyle=none;html=1;exitX=0.5;exitY=1;exitDx=0;exitDy=0;entryX=0.398;entryY=0.033;entryDx=0;entryDy=0;entryPerimeter=0;" parent="1" source="2" target="21" edge="1">
                    <mxGeometry relative="1" as="geometry"/>
                </mxCell>
                <mxCell id="2" value="Pièce" style="swimlane;whiteSpace=wrap;html=1;" parent="1" vertex="1">
                    <mxGeometry x="10" y="40" width="160" height="200" as="geometry"/>
                </mxCell>
                <mxCell id="7" value="categorie" style="text;html=1;align=center;verticalAlign=middle;resizable=0;points=[];autosize=1;strokeColor=none;fillColor=none;" parent="2" vertex="1">
                    <mxGeometry x="45" y="70" width="70" height="30" as="geometry"/>
                </mxCell>
                <mxCell id="8" value="date_recup" style="text;html=1;align=center;verticalAlign=middle;resizable=0;points=[];autosize=1;strokeColor=none;fillColor=none;" parent="2" vertex="1">
                    <mxGeometry x="40" y="110" width="80" height="30" as="geometry"/>
                </mxCell>
                <mxCell id="5" value="id_piece" style="text;html=1;align=center;verticalAlign=middle;resizable=0;points=[];autosize=1;strokeColor=none;fillColor=none;" parent="2" vertex="1">
                    <mxGeometry x="45" y="35" width="70" height="30" as="geometry"/>
                </mxCell>
                <mxCell id="18" style="edgeStyle=none;html=1;exitX=0;exitY=0.5;exitDx=0;exitDy=0;entryX=1;entryY=0.5;entryDx=0;entryDy=0;" parent="1" source="3" target="4" edge="1">
                    <mxGeometry relative="1" as="geometry"/>
                </mxCell>
                <mxCell id="3" value="Vehicule" style="swimlane;whiteSpace=wrap;html=1;" parent="1" vertex="1">
                    <mxGeometry x="570" y="40" width="170" height="200" as="geometry"/>
                </mxCell>
                <mxCell id="12" value="id_vehicule" style="text;html=1;align=center;verticalAlign=middle;resizable=0;points=[];autosize=1;strokeColor=none;fillColor=none;" parent="3" vertex="1">
                    <mxGeometry x="45" y="35" width="80" height="30" as="geometry"/>
                </mxCell>
                <mxCell id="13" value="marque" style="text;html=1;align=center;verticalAlign=middle;resizable=0;points=[];autosize=1;strokeColor=none;fillColor=none;" parent="3" vertex="1">
                    <mxGeometry x="55" y="65" width="60" height="30" as="geometry"/>
                </mxCell>
                <mxCell id="14" value="modele" style="text;html=1;align=center;verticalAlign=middle;resizable=0;points=[];autosize=1;strokeColor=none;fillColor=none;" parent="3" vertex="1">
                    <mxGeometry x="55" y="95" width="60" height="30" as="geometry"/>
                </mxCell>
                <mxCell id="15" value="annee" style="text;html=1;align=center;verticalAlign=middle;resizable=0;points=[];autosize=1;strokeColor=none;fillColor=none;" parent="3" vertex="1">
                    <mxGeometry x="55" y="135" width="60" height="30" as="geometry"/>
                </mxCell>
                <mxCell id="4" value="Appartient" style="ellipse;whiteSpace=wrap;html=1;" parent="1" vertex="1">
                    <mxGeometry x="300" y="100" width="120" height="80" as="geometry"/>
                </mxCell>
                <mxCell id="23" style="edgeStyle=none;html=1;exitX=0;exitY=0.5;exitDx=0;exitDy=0;" parent="1" source="19" target="21" edge="1">
                    <mxGeometry relative="1" as="geometry"/>
                </mxCell>
                <mxCell id="19" value="Reference" style="swimlane;whiteSpace=wrap;html=1;" parent="1" vertex="1">
                    <mxGeometry x="290" y="240" width="150" height="200" as="geometry"/>
                </mxCell>
                <mxCell id="20" value="id_reference" style="text;html=1;align=center;verticalAlign=middle;resizable=0;points=[];autosize=1;strokeColor=none;fillColor=none;" parent="19" vertex="1">
                    <mxGeometry x="25" y="55" width="90" height="30" as="geometry"/>
                </mxCell>
                <mxCell id="24" value="prix" style="text;html=1;align=center;verticalAlign=middle;resizable=0;points=[];autosize=1;strokeColor=none;fillColor=none;" parent="19" vertex="1">
                    <mxGeometry x="50" y="100" width="40" height="30" as="geometry"/>
                </mxCell>
                <mxCell id="21" value="avoir" style="ellipse;whiteSpace=wrap;html=1;" parent="1" vertex="1">
                    <mxGeometry x="40" y="300" width="120" height="80" as="geometry"/>
                </mxCell>
                <mxCell id="25" value="HYPOTHESE I" style="text;html=1;align=center;verticalAlign=middle;resizable=0;points=[];autosize=1;strokeColor=none;fillColor=none;" parent="1" vertex="1">
                    <mxGeometry x="305" y="10" width="100" height="30" as="geometry"/>
                </mxCell>
                <mxCell id="36" style="edgeStyle=none;html=1;exitX=1;exitY=0.5;exitDx=0;exitDy=0;entryX=0;entryY=0.5;entryDx=0;entryDy=0;" parent="1" source="26" target="30" edge="1">
                    <mxGeometry relative="1" as="geometry"/>
                </mxCell>
                <mxCell id="26" value="Pièce" style="swimlane;whiteSpace=wrap;html=1;" parent="1" vertex="1">
                    <mxGeometry x="45" y="940" width="160" height="200" as="geometry"/>
                </mxCell>
                <mxCell id="28" value="date_recup" style="text;html=1;align=center;verticalAlign=middle;resizable=0;points=[];autosize=1;strokeColor=none;fillColor=none;" parent="26" vertex="1">
                    <mxGeometry x="40" y="130" width="80" height="30" as="geometry"/>
                </mxCell>
                <mxCell id="29" value="&lt;u&gt;id_piece&lt;/u&gt;" style="text;html=1;align=center;verticalAlign=middle;resizable=0;points=[];autosize=1;strokeColor=none;fillColor=none;" parent="26" vertex="1">
                    <mxGeometry x="45" y="35" width="70" height="30" as="geometry"/>
                </mxCell>
                <mxCell id="40" value="prix" style="text;html=1;align=center;verticalAlign=middle;resizable=0;points=[];autosize=1;strokeColor=none;fillColor=none;" parent="26" vertex="1">
                    <mxGeometry x="60" y="160" width="40" height="30" as="geometry"/>
                </mxCell>
                <mxCell id="48" value="reference" style="text;html=1;align=center;verticalAlign=middle;resizable=0;points=[];autosize=1;strokeColor=none;fillColor=none;" parent="26" vertex="1">
                    <mxGeometry x="45" y="65" width="70" height="30" as="geometry"/>
                </mxCell>
                <mxCell id="27" value="categorie" style="text;html=1;align=center;verticalAlign=middle;resizable=0;points=[];autosize=1;strokeColor=none;fillColor=none;" parent="26" vertex="1">
                    <mxGeometry x="45" y="100" width="70" height="30" as="geometry"/>
                </mxCell>
                <mxCell id="30" value="Appartient" style="ellipse;whiteSpace=wrap;html=1;" parent="1" vertex="1">
                    <mxGeometry x="370" y="1000" width="120" height="80" as="geometry"/>
                </mxCell>
                <mxCell id="37" style="edgeStyle=none;html=1;exitX=0;exitY=0.5;exitDx=0;exitDy=0;entryX=1;entryY=0.5;entryDx=0;entryDy=0;" parent="1" source="31" target="30" edge="1">
                    <mxGeometry relative="1" as="geometry"/>
                </mxCell>
                <mxCell id="31" value="Vehicule" style="swimlane;whiteSpace=wrap;html=1;" parent="1" vertex="1">
                    <mxGeometry x="640" y="940" width="170" height="200" as="geometry"/>
                </mxCell>
                <mxCell id="32" value="id_vehicule" style="text;html=1;align=center;verticalAlign=middle;resizable=0;points=[];autosize=1;strokeColor=none;fillColor=none;" parent="31" vertex="1">
                    <mxGeometry x="45" y="35" width="80" height="30" as="geometry"/>
                </mxCell>
                <mxCell id="33" value="marque" style="text;html=1;align=center;verticalAlign=middle;resizable=0;points=[];autosize=1;strokeColor=none;fillColor=none;" parent="31" vertex="1">
                    <mxGeometry x="55" y="65" width="60" height="30" as="geometry"/>
                </mxCell>
                <mxCell id="34" value="modele" style="text;html=1;align=center;verticalAlign=middle;resizable=0;points=[];autosize=1;strokeColor=none;fillColor=none;" parent="31" vertex="1">
                    <mxGeometry x="55" y="95" width="60" height="30" as="geometry"/>
                </mxCell>
                <mxCell id="35" value="annee" style="text;html=1;align=center;verticalAlign=middle;resizable=0;points=[];autosize=1;strokeColor=none;fillColor=none;" parent="31" vertex="1">
                    <mxGeometry x="55" y="135" width="60" height="30" as="geometry"/>
                </mxCell>
                <mxCell id="38" value="HYPOTHESE II" style="text;html=1;align=center;verticalAlign=middle;resizable=0;points=[];autosize=1;strokeColor=none;fillColor=none;" parent="1" vertex="1">
                    <mxGeometry x="320" y="890" width="110" height="30" as="geometry"/>
                </mxCell>
                <mxCell id="41" value="1,1" style="text;html=1;align=center;verticalAlign=middle;resizable=0;points=[];autosize=1;strokeColor=none;fillColor=none;" parent="1" vertex="1">
                    <mxGeometry x="165" y="110" width="40" height="30" as="geometry"/>
                </mxCell>
                <mxCell id="42" value="1,N" style="text;html=1;align=center;verticalAlign=middle;resizable=0;points=[];autosize=1;strokeColor=none;fillColor=none;" parent="1" vertex="1">
                    <mxGeometry x="525" y="110" width="40" height="30" as="geometry"/>
                </mxCell>
                <mxCell id="43" value="1,1" style="text;html=1;align=center;verticalAlign=middle;resizable=0;points=[];autosize=1;strokeColor=none;fillColor=none;" parent="1" vertex="1">
                    <mxGeometry x="80" y="235" width="40" height="30" as="geometry"/>
                </mxCell>
                <mxCell id="45" value="1,N" style="text;html=1;align=center;verticalAlign=middle;resizable=0;points=[];autosize=1;strokeColor=none;fillColor=none;" parent="1" vertex="1">
                    <mxGeometry x="240" y="305" width="40" height="30" as="geometry"/>
                </mxCell>
                <mxCell id="46" value="1,1" style="text;html=1;align=center;verticalAlign=middle;resizable=0;points=[];autosize=1;strokeColor=none;fillColor=none;" parent="1" vertex="1">
                    <mxGeometry x="200" y="1010" width="40" height="30" as="geometry"/>
                </mxCell>
                <mxCell id="47" value="1,N" style="text;html=1;align=center;verticalAlign=middle;resizable=0;points=[];autosize=1;strokeColor=none;fillColor=none;" parent="1" vertex="1">
                    <mxGeometry x="600" y="1010" width="40" height="30" as="geometry"/>
                </mxCell>
                <mxCell id="49" value="Graphe de dépendance fonctionnelle1" style="text;html=1;align=center;verticalAlign=middle;resizable=0;points=[];autosize=1;strokeColor=none;fillColor=none;" parent="1" vertex="1">
                    <mxGeometry x="15" y="505" width="230" height="30" as="geometry"/>
                </mxCell>
                <mxCell id="50" value="id_piece" style="text;html=1;align=center;verticalAlign=middle;resizable=0;points=[];autosize=1;strokeColor=none;fillColor=none;" parent="1" vertex="1">
                    <mxGeometry x="260" y="650" width="70" height="30" as="geometry"/>
                </mxCell>
                <mxCell id="52" value="categorie" style="text;html=1;align=center;verticalAlign=middle;resizable=0;points=[];autosize=1;strokeColor=none;fillColor=none;" parent="1" vertex="1">
                    <mxGeometry x="160" y="730" width="70" height="30" as="geometry"/>
                </mxCell>
                <mxCell id="54" value="date_recup" style="text;html=1;align=center;verticalAlign=middle;resizable=0;points=[];autosize=1;strokeColor=none;fillColor=none;" parent="1" vertex="1">
                    <mxGeometry x="255" y="730" width="80" height="30" as="geometry"/>
                </mxCell>
                <mxCell id="56" value="id_vehicule" style="text;html=1;align=center;verticalAlign=middle;resizable=0;points=[];autosize=1;strokeColor=none;fillColor=none;" parent="1" vertex="1">
                    <mxGeometry x="515" y="505" width="80" height="30" as="geometry"/>
                </mxCell>
                <mxCell id="57" value="marque" style="text;html=1;align=center;verticalAlign=middle;resizable=0;points=[];autosize=1;strokeColor=none;fillColor=none;" parent="1" vertex="1">
                    <mxGeometry x="345" y="590" width="60" height="30" as="geometry"/>
                </mxCell>
                <mxCell id="58" value="modele" style="text;html=1;align=center;verticalAlign=middle;resizable=0;points=[];autosize=1;strokeColor=none;fillColor=none;" parent="1" vertex="1">
                    <mxGeometry x="525" y="590" width="60" height="30" as="geometry"/>
                </mxCell>
                <mxCell id="59" value="annee" style="text;html=1;align=center;verticalAlign=middle;resizable=0;points=[];autosize=1;strokeColor=none;fillColor=none;" parent="1" vertex="1">
                    <mxGeometry x="640" y="590" width="60" height="30" as="geometry"/>
                </mxCell>
                <mxCell id="60" value="id_reference" style="text;html=1;align=center;verticalAlign=middle;resizable=0;points=[];autosize=1;strokeColor=none;fillColor=none;" parent="1" vertex="1">
                    <mxGeometry x="350" y="730" width="90" height="30" as="geometry"/>
                </mxCell>
                <mxCell id="61" value="prix" style="text;html=1;align=center;verticalAlign=middle;resizable=0;points=[];autosize=1;strokeColor=none;fillColor=none;" parent="1" vertex="1">
                    <mxGeometry x="440" y="790" width="40" height="30" as="geometry"/>
                </mxCell>
                <mxCell id="62" value="" style="endArrow=none;html=1;entryX=0.117;entryY=1.092;entryDx=0;entryDy=0;entryPerimeter=0;" parent="1" source="50" target="57" edge="1">
                    <mxGeometry width="50" height="50" relative="1" as="geometry">
                        <mxPoint x="385" y="575" as="sourcePoint"/>
                        <mxPoint x="340" y="630" as="targetPoint"/>
                    </mxGeometry>
                </mxCell>
                <mxCell id="63" value="" style="endArrow=none;html=1;exitX=0.759;exitY=-0.107;exitDx=0;exitDy=0;exitPerimeter=0;entryX=0.025;entryY=0.99;entryDx=0;entryDy=0;entryPerimeter=0;" parent="1" source="52" target="50" edge="1">
                    <mxGeometry width="50" height="50" relative="1" as="geometry">
                        <mxPoint x="220" y="660" as="sourcePoint"/>
                        <mxPoint x="270" y="610" as="targetPoint"/>
                    </mxGeometry>
                </mxCell>
                <mxCell id="64" value="" style="endArrow=none;html=1;" parent="1" source="57" edge="1">
                    <mxGeometry width="50" height="50" relative="1" as="geometry">
                        <mxPoint x="450" y="510" as="sourcePoint"/>
                        <mxPoint x="510" y="540" as="targetPoint"/>
                    </mxGeometry>
                </mxCell>
                <mxCell id="65" value="" style="endArrow=none;html=1;" parent="1" source="54" target="50" edge="1">
                    <mxGeometry width="50" height="50" relative="1" as="geometry">
                        <mxPoint x="340" y="660" as="sourcePoint"/>
                        <mxPoint x="390" y="610" as="targetPoint"/>
                    </mxGeometry>
                </mxCell>
                <mxCell id="66" value="" style="endArrow=none;html=1;exitX=0.348;exitY=0.009;exitDx=0;exitDy=0;exitPerimeter=0;" parent="1" source="60" target="50" edge="1">
                    <mxGeometry width="50" height="50" relative="1" as="geometry">
                        <mxPoint x="340" y="660" as="sourcePoint"/>
                        <mxPoint x="390" y="610" as="targetPoint"/>
                    </mxGeometry>
                </mxCell>
                <mxCell id="67" value="" style="endArrow=none;html=1;exitX=0.392;exitY=0.027;exitDx=0;exitDy=0;exitPerimeter=0;" parent="1" source="58" edge="1">
                    <mxGeometry width="50" height="50" relative="1" as="geometry">
                        <mxPoint x="550" y="510" as="sourcePoint"/>
                        <mxPoint x="550" y="540" as="targetPoint"/>
                    </mxGeometry>
                </mxCell>
                <mxCell id="68" value="" style="endArrow=none;html=1;" parent="1" source="59" edge="1">
                    <mxGeometry width="50" height="50" relative="1" as="geometry">
                        <mxPoint x="530" y="520" as="sourcePoint"/>
                        <mxPoint x="590" y="540" as="targetPoint"/>
                    </mxGeometry>
                </mxCell>
                <mxCell id="69" value="" style="endArrow=none;html=1;entryX=0.734;entryY=1.12;entryDx=0;entryDy=0;entryPerimeter=0;" parent="1" source="61" target="60" edge="1">
                    <mxGeometry width="50" height="50" relative="1" as="geometry">
                        <mxPoint x="340" y="690" as="sourcePoint"/>
                        <mxPoint x="390" y="640" as="targetPoint"/>
                    </mxGeometry>
                </mxCell>
                <mxCell id="71" value="id-vehicule" style="text;html=1;align=center;verticalAlign=middle;resizable=0;points=[];autosize=1;strokeColor=none;fillColor=none;" parent="1" vertex="1">
                    <mxGeometry x="360" y="1290" width="80" height="30" as="geometry"/>
                </mxCell>
                <mxCell id="72" value="marque" style="text;html=1;align=center;verticalAlign=middle;resizable=0;points=[];autosize=1;strokeColor=none;fillColor=none;" parent="1" vertex="1">
                    <mxGeometry x="240" y="1365" width="60" height="30" as="geometry"/>
                </mxCell>
                <mxCell id="73" value="modele" style="text;html=1;align=center;verticalAlign=middle;resizable=0;points=[];autosize=1;strokeColor=none;fillColor=none;" parent="1" vertex="1">
                    <mxGeometry x="370" y="1365" width="60" height="30" as="geometry"/>
                </mxCell>
                <mxCell id="74" value="annee" style="text;html=1;align=center;verticalAlign=middle;resizable=0;points=[];autosize=1;strokeColor=none;fillColor=none;" parent="1" vertex="1">
                    <mxGeometry x="465" y="1365" width="60" height="30" as="geometry"/>
                </mxCell>
                <mxCell id="75" value="id_piece" style="text;html=1;align=center;verticalAlign=middle;resizable=0;points=[];autosize=1;strokeColor=none;fillColor=none;" parent="1" vertex="1">
                    <mxGeometry x="130" y="1430" width="70" height="30" as="geometry"/>
                </mxCell>
                <mxCell id="76" value="categorie" style="text;html=1;align=center;verticalAlign=middle;resizable=0;points=[];autosize=1;strokeColor=none;fillColor=none;" parent="1" vertex="1">
                    <mxGeometry x="15" y="1505" width="70" height="30" as="geometry"/>
                </mxCell>
                <mxCell id="77" value="date_recup" style="text;html=1;align=center;verticalAlign=middle;resizable=0;points=[];autosize=1;strokeColor=none;fillColor=none;" parent="1" vertex="1">
                    <mxGeometry x="90" y="1505" width="80" height="30" as="geometry"/>
                </mxCell>
                <mxCell id="78" value="prix" style="text;html=1;align=center;verticalAlign=middle;resizable=0;points=[];autosize=1;strokeColor=none;fillColor=none;" parent="1" vertex="1">
                    <mxGeometry x="190" y="1505" width="40" height="30" as="geometry"/>
                </mxCell>
                <mxCell id="79" value="" style="endArrow=none;html=1;" parent="1" source="72" edge="1">
                    <mxGeometry width="50" height="50" relative="1" as="geometry">
                        <mxPoint x="320" y="1365" as="sourcePoint"/>
                        <mxPoint x="370" y="1315" as="targetPoint"/>
                    </mxGeometry>
                </mxCell>
                <mxCell id="80" value="" style="endArrow=none;html=1;" parent="1" edge="1">
                    <mxGeometry width="50" height="50" relative="1" as="geometry">
                        <mxPoint x="190" y="1430" as="sourcePoint"/>
                        <mxPoint x="255" y="1385" as="targetPoint"/>
                    </mxGeometry>
                </mxCell>
                <mxCell id="81" value="" style="endArrow=none;html=1;exitX=0.777;exitY=-0.079;exitDx=0;exitDy=0;exitPerimeter=0;" parent="1" source="76" edge="1">
                    <mxGeometry width="50" height="50" relative="1" as="geometry">
                        <mxPoint x="105" y="1515" as="sourcePoint"/>
                        <mxPoint x="150" y="1460" as="targetPoint"/>
                    </mxGeometry>
                </mxCell>
                <mxCell id="82" value="" style="endArrow=none;html=1;" parent="1" source="77" edge="1">
                    <mxGeometry width="50" height="50" relative="1" as="geometry">
                        <mxPoint x="170" y="1500" as="sourcePoint"/>
                        <mxPoint x="170" y="1460" as="targetPoint"/>
                    </mxGeometry>
                </mxCell>
                <mxCell id="83" value="" style="endArrow=none;html=1;" parent="1" source="78" target="75" edge="1">
                    <mxGeometry width="50" height="50" relative="1" as="geometry">
                        <mxPoint x="400" y="1470" as="sourcePoint"/>
                        <mxPoint x="450" y="1420" as="targetPoint"/>
                    </mxGeometry>
                </mxCell>
                <mxCell id="84" value="" style="endArrow=none;html=1;" parent="1" target="71" edge="1">
                    <mxGeometry width="50" height="50" relative="1" as="geometry">
                        <mxPoint x="400" y="1360" as="sourcePoint"/>
                        <mxPoint x="450" y="1420" as="targetPoint"/>
                    </mxGeometry>
                </mxCell>
                <mxCell id="85" value="" style="endArrow=none;html=1;entryX=0.75;entryY=1;entryDx=0;entryDy=0;entryPerimeter=0;" parent="1" source="74" target="71" edge="1">
                    <mxGeometry width="50" height="50" relative="1" as="geometry">
                        <mxPoint x="400" y="1470" as="sourcePoint"/>
                        <mxPoint x="450" y="1420" as="targetPoint"/>
                    </mxGeometry>
                </mxCell>
                <mxCell id="86" value="reference" style="text;html=1;align=center;verticalAlign=middle;resizable=0;points=[];autosize=1;strokeColor=none;fillColor=none;" parent="1" vertex="1">
                    <mxGeometry x="235" y="1505" width="70" height="30" as="geometry"/>
                </mxCell>
                <mxCell id="87" value="" style="endArrow=none;html=1;" parent="1" source="86" target="75" edge="1">
                    <mxGeometry width="50" height="50" relative="1" as="geometry">
                        <mxPoint x="380" y="1670" as="sourcePoint"/>
                        <mxPoint x="430" y="1620" as="targetPoint"/>
                    </mxGeometry>
                </mxCell>
                <mxCell id="88" value="MODELES LOGIQUES&amp;nbsp; DE DONNEES" style="text;html=1;align=center;verticalAlign=middle;resizable=0;points=[];autosize=1;strokeColor=none;fillColor=none;" parent="1" vertex="1">
                    <mxGeometry x="305" y="1615" width="230" height="30" as="geometry"/>
                </mxCell>
                <mxCell id="90" value="HYPOTHESE I" style="text;html=1;align=center;verticalAlign=middle;resizable=0;points=[];autosize=1;strokeColor=none;fillColor=none;" parent="1" vertex="1">
                    <mxGeometry x="60" y="1650" width="100" height="30" as="geometry"/>
                </mxCell>
                <mxCell id="91" value="Pièce" style="swimlane;whiteSpace=wrap;html=1;" parent="1" vertex="1">
                    <mxGeometry x="315" y="1720" width="160" height="260" as="geometry"/>
                </mxCell>
                <mxCell id="92" value="date_recup" style="text;html=1;align=center;verticalAlign=middle;resizable=0;points=[];autosize=1;strokeColor=none;fillColor=none;" parent="91" vertex="1">
                    <mxGeometry x="45" y="120" width="80" height="30" as="geometry"/>
                </mxCell>
                <mxCell id="93" value="id_piece" style="text;html=1;align=center;verticalAlign=middle;resizable=0;points=[];autosize=1;strokeColor=none;fillColor=none;" parent="91" vertex="1">
                    <mxGeometry x="45" y="35" width="70" height="30" as="geometry"/>
                </mxCell>
                <mxCell id="94" value="prix" style="text;html=1;align=center;verticalAlign=middle;resizable=0;points=[];autosize=1;strokeColor=none;fillColor=none;" parent="91" vertex="1">
                    <mxGeometry x="60" y="160" width="40" height="30" as="geometry"/>
                </mxCell>
                <mxCell id="95" value="#id_reference" style="text;html=1;align=center;verticalAlign=middle;resizable=0;points=[];autosize=1;strokeColor=none;fillColor=none;" parent="91" vertex="1">
                    <mxGeometry x="30" y="190" width="100" height="30" as="geometry"/>
                </mxCell>
                <mxCell id="96" value="categorie" style="text;html=1;align=center;verticalAlign=middle;resizable=0;points=[];autosize=1;strokeColor=none;fillColor=none;" parent="91" vertex="1">
                    <mxGeometry x="45" y="80" width="70" height="30" as="geometry"/>
                </mxCell>
                <mxCell id="114" value="#id_vehicule" style="text;html=1;align=center;verticalAlign=middle;resizable=0;points=[];autosize=1;strokeColor=none;fillColor=none;" parent="91" vertex="1">
                    <mxGeometry x="35" y="220" width="90" height="30" as="geometry"/>
                </mxCell>
                <mxCell id="103" value="Vehicule" style="swimlane;whiteSpace=wrap;html=1;" parent="1" vertex="1">
                    <mxGeometry x="650" y="1750" width="170" height="200" as="geometry"/>
                </mxCell>
                <mxCell id="104" value="id_vehicule" style="text;html=1;align=center;verticalAlign=middle;resizable=0;points=[];autosize=1;strokeColor=none;fillColor=none;" parent="103" vertex="1">
                    <mxGeometry x="45" y="35" width="80" height="30" as="geometry"/>
                </mxCell>
                <mxCell id="105" value="marque" style="text;html=1;align=center;verticalAlign=middle;resizable=0;points=[];autosize=1;strokeColor=none;fillColor=none;" parent="103" vertex="1">
                    <mxGeometry x="55" y="65" width="60" height="30" as="geometry"/>
                </mxCell>
                <mxCell id="106" value="modele" style="text;html=1;align=center;verticalAlign=middle;resizable=0;points=[];autosize=1;strokeColor=none;fillColor=none;" parent="103" vertex="1">
                    <mxGeometry x="55" y="95" width="60" height="30" as="geometry"/>
                </mxCell>
                <mxCell id="107" value="annee" style="text;html=1;align=center;verticalAlign=middle;resizable=0;points=[];autosize=1;strokeColor=none;fillColor=none;" parent="103" vertex="1">
                    <mxGeometry x="55" y="135" width="60" height="30" as="geometry"/>
                </mxCell>
                <mxCell id="108" value="Reference" style="swimlane;whiteSpace=wrap;html=1;" parent="1" vertex="1">
                    <mxGeometry x="10" y="1750" width="150" height="200" as="geometry"/>
                </mxCell>
                <mxCell id="109" value="id_reference" style="text;html=1;align=center;verticalAlign=middle;resizable=0;points=[];autosize=1;strokeColor=none;fillColor=none;" parent="108" vertex="1">
                    <mxGeometry x="25" y="55" width="90" height="30" as="geometry"/>
                </mxCell>
                <mxCell id="110" value="prix" style="text;html=1;align=center;verticalAlign=middle;resizable=0;points=[];autosize=1;strokeColor=none;fillColor=none;" parent="108" vertex="1">
                    <mxGeometry x="50" y="100" width="40" height="30" as="geometry"/>
                </mxCell>
                <mxCell id="112" value="" style="endArrow=classic;html=1;entryX=1;entryY=0.5;entryDx=0;entryDy=0;exitX=0;exitY=0.5;exitDx=0;exitDy=0;" parent="1" source="103" target="91" edge="1">
                    <mxGeometry width="50" height="50" relative="1" as="geometry">
                        <mxPoint x="320" y="1750" as="sourcePoint"/>
                        <mxPoint x="370" y="1700" as="targetPoint"/>
                    </mxGeometry>
                </mxCell>
                <mxCell id="113" value="" style="endArrow=classic;html=1;exitX=1;exitY=0.5;exitDx=0;exitDy=0;entryX=0;entryY=0.5;entryDx=0;entryDy=0;" parent="1" source="108" target="91" edge="1">
                    <mxGeometry width="50" height="50" relative="1" as="geometry">
                        <mxPoint x="320" y="1870" as="sourcePoint"/>
                        <mxPoint x="370" y="1820" as="targetPoint"/>
                    </mxGeometry>
                </mxCell>
                <mxCell id="115" value="HYPOTHESE II" style="text;html=1;align=center;verticalAlign=middle;resizable=0;points=[];autosize=1;strokeColor=none;fillColor=none;" parent="1" vertex="1">
                    <mxGeometry x="45" y="2035" width="110" height="30" as="geometry"/>
                </mxCell>
                <mxCell id="119" value="Vehicule" style="swimlane;whiteSpace=wrap;html=1;" parent="1" vertex="1">
                    <mxGeometry x="440" y="2120" width="170" height="200" as="geometry"/>
                </mxCell>
                <mxCell id="120" value="id_vehicule" style="text;html=1;align=center;verticalAlign=middle;resizable=0;points=[];autosize=1;strokeColor=none;fillColor=none;" parent="119" vertex="1">
                    <mxGeometry x="45" y="35" width="80" height="30" as="geometry"/>
                </mxCell>
                <mxCell id="121" value="marque" style="text;html=1;align=center;verticalAlign=middle;resizable=0;points=[];autosize=1;strokeColor=none;fillColor=none;" parent="119" vertex="1">
                    <mxGeometry x="55" y="65" width="60" height="30" as="geometry"/>
                </mxCell>
                <mxCell id="122" value="modele" style="text;html=1;align=center;verticalAlign=middle;resizable=0;points=[];autosize=1;strokeColor=none;fillColor=none;" parent="119" vertex="1">
                    <mxGeometry x="55" y="95" width="60" height="30" as="geometry"/>
                </mxCell>
                <mxCell id="123" value="annee" style="text;html=1;align=center;verticalAlign=middle;resizable=0;points=[];autosize=1;strokeColor=none;fillColor=none;" parent="119" vertex="1">
                    <mxGeometry x="55" y="135" width="60" height="30" as="geometry"/>
                </mxCell>
                <mxCell id="124" value="" style="endArrow=classic;html=1;exitX=0;exitY=0.5;exitDx=0;exitDy=0;" parent="1" source="119" edge="1">
                    <mxGeometry width="50" height="50" relative="1" as="geometry">
                        <mxPoint x="440" y="2300" as="sourcePoint"/>
                        <mxPoint x="280" y="2220" as="targetPoint"/>
                    </mxGeometry>
                </mxCell>
                <mxCell id="126" value="&lt;font style=&quot;font-size: 13px;&quot;&gt;&lt;b&gt;Graphe de dépendance fonctionnelle 2&lt;/b&gt;&lt;/font&gt;" style="text;html=1;align=center;verticalAlign=middle;resizable=0;points=[];autosize=1;strokeColor=none;fillColor=none;" vertex="1" parent="1">
                    <mxGeometry y="1220" width="260" height="30" as="geometry"/>
                </mxCell>
                <mxCell id="189" value="Pièce" style="swimlane;whiteSpace=wrap;html=1;" vertex="1" parent="1">
                    <mxGeometry x="120" y="2120" width="160" height="200" as="geometry"/>
                </mxCell>
                <mxCell id="190" value="date_recup" style="text;html=1;align=center;verticalAlign=middle;resizable=0;points=[];autosize=1;strokeColor=none;fillColor=none;" vertex="1" parent="189">
                    <mxGeometry x="40" y="130" width="80" height="30" as="geometry"/>
                </mxCell>
                <mxCell id="191" value="&lt;u&gt;id_piece&lt;/u&gt;" style="text;html=1;align=center;verticalAlign=middle;resizable=0;points=[];autosize=1;strokeColor=none;fillColor=none;" vertex="1" parent="189">
                    <mxGeometry x="45" y="35" width="70" height="30" as="geometry"/>
                </mxCell>
                <mxCell id="192" value="prix" style="text;html=1;align=center;verticalAlign=middle;resizable=0;points=[];autosize=1;strokeColor=none;fillColor=none;" vertex="1" parent="189">
                    <mxGeometry x="60" y="160" width="40" height="30" as="geometry"/>
                </mxCell>
                <mxCell id="193" value="reference" style="text;html=1;align=center;verticalAlign=middle;resizable=0;points=[];autosize=1;strokeColor=none;fillColor=none;" vertex="1" parent="189">
                    <mxGeometry x="45" y="65" width="70" height="30" as="geometry"/>
                </mxCell>
                <mxCell id="194" value="categorie" style="text;html=1;align=center;verticalAlign=middle;resizable=0;points=[];autosize=1;strokeColor=none;fillColor=none;" vertex="1" parent="189">
                    <mxGeometry x="45" y="100" width="70" height="30" as="geometry"/>
                </mxCell>
            </root>
        </mxGraphModel>
    </diagram>
</mxfile>